SILVERTORRENT Clean Verified Torrents Download
                           
http://silvertorrent.org/ __________________ http://silvertorrent.org/

------------------------------------------------------------------------
               
http://www.shotpix.com/images/08096634903738710469.png

IMDB:http://www.imdb.com/title/tt2176013

General
Unique ID                                : 203707194469163162510841745470174555475 (0x9940941D437D1DB28833B0DF02846D53)
Complete name                            : C:UsersAdministratorDesktopJab Tak Hai Jaan 2012 Hindi 480p DvDScr (Video Cleaned) AC3  [ToM-ExD]Jab Tak Hai Jaan 2012 Hindi 480p DvDScr (Video Cleaned) AC3  [ToM-ExD].mkv
Format                                   : Matroska
Format version                           : Version 2
File size                                : 705 MiB
Duration                                 : 2h 35mn
Overall bit rate                         : 635 Kbps
Encoded date                             : UTC 2012-11-22 16:37:18
Writing application                      : mkvmerge v5.6.0 ('Kenya Kane'wink.gif built on May 27 2012 16:44:04
Writing library                          : libebml v1.2.3 + libmatroska v1.3.0

Video
ID                                       : 1
Format                                   : AVC
Format/Info                              : Advanced Video Codec
Format profile                           : High@L3.0
Format settings, CABAC                   : Yes
Format settings, ReFrames                : 4 frames
Muxing mode                              : Header stripping
Codec ID                                 : V_MPEG4/ISO/AVC
Duration                                 : 2h 35mn
Bit rate                                 : 570 Kbps
Width                                    : 720 pixels
Height                                   : 320 pixels
Display aspect ratio                     : 2.25:1
Frame rate mode                          : Constant
Frame rate                               : 23.976 fps
Color space                              : YUV
Chroma subsampling                       : 4:2:0
Bit depth                                : 8 bits
Scan type                                : Progressive
Bits/(Pixel*Frame)                       : 0.103
Stream size                              : 620 MiB (88%)
Title                                    : ToM-ExD
Writing library                          : x264 core 125 r2200 999b753
Encoding settings                        : cabac=1 / ref=3 / deblock=1:-1:-1 / analyse=0x3:0x133 / me=esa / subme=7 / psy=1 / psy_rd=1.00:0.00 / mixed_ref=1 / me_range=24 / chroma_me=1 / trellis=1 / 8x8dct=1 / cqm=0 / deadzone=21,11 / fast_pskip=1 / chroma_qp_offset=-2 / threads=6 / lookahead_threads=1 / sliced_threads=0 / nr=250 / decimate=1 / interlaced=0 / bluray_compat=0 / constrained_intra=0 / bframes=3 / b_pyramid=2 / b_adapt=1 / b_bias=0 / direct=1 / weightb=1 / open_gop=0 / weightp=2 / keyint=240 / keyint_min=23 / scenecut=40 / intra_refresh=0 / rc_lookahead=40 / rc=2pass / mbtree=1 / bitrate=570 / ratetol=1.0 / qcomp=0.60 / qpmin=15 / qpmax=35 / qpstep=4 / cplxblur=20.0 / qblur=0.5 / ip_ratio=1.40 / aq=1:1.00
Language                                 : Hindi
Default                                  : Yes
Forced                                   : No

Audio
ID                                       : 2
Format                                   : AC-3
Format/Info                              : Audio Coding 3
Mode extension                           : CM (complete main)
Format settings, Endianness              : Big
Muxing mode                              : Header stripping
Codec ID                                 : A_AC3
Duration                                 : 2h 35mn
Bit rate mode                            : Constant
Bit rate                                 : 64.0 Kbps
Channel(s)                               : 2 channels
Channel positions                        : Front: L R
Sampling rate                            : 44.1 KHz
Bit depth                                : 16 bits
Compression mode                         : Lossy
Stream size                              : 71.1 MiB (10%)
Title                                    : Hindi [ToM-ExD]
Language                                 : Hindi
Default                                  : Yes
Forced                                   : No

Screen Shots: 
http://silvertorrent.org/index.php?page=torrent-details&id=acfd214e938e202a2c8b3ccd066c1c316c7110a6